<svg width="104" height="26" viewBox="0 0 104 26" fill="none" xmlns="http://www.w3.org/2000/svg">
<path d="M7.80615 9V11.5H0.57959V9H7.80615ZM2.22021 6.125H5.54834V17.3125C5.54834 17.6198 5.59522 17.8594 5.68897 18.0312C5.78271 18.1979 5.91292 18.3151 6.07959 18.3828C6.25147 18.4505 6.44938 18.4844 6.67334 18.4844C6.82959 18.4844 6.98584 18.4714 7.14209 18.4453C7.29834 18.4141 7.41813 18.3906 7.50147 18.375L8.0249 20.8516C7.85824 20.9036 7.62386 20.9635 7.32178 21.0313C7.01969 21.1042 6.65251 21.1484 6.22021 21.1641C5.41813 21.1953 4.71501 21.0885 4.11084 20.8437C3.51188 20.599 3.04574 20.2187 2.7124 19.7031C2.37907 19.1875 2.21501 18.5365 2.22021 17.75V6.125ZM9.97412 21V9H13.2007V11.0937H13.3257C13.5444 10.349 13.9116 9.78646 14.4272 9.40625C14.9429 9.02083 15.5366 8.82812 16.2085 8.82812C16.3752 8.82812 16.5549 8.83854 16.7476 8.85937C16.9403 8.88021 17.1095 8.90885 17.2554 8.94531V11.8984C17.0991 11.8516 16.883 11.8099 16.6069 11.7734C16.3309 11.737 16.0783 11.7188 15.8491 11.7188C15.3595 11.7188 14.922 11.8255 14.5366 12.0391C14.1564 12.2474 13.8543 12.5391 13.6304 12.9141C13.4116 13.2891 13.3022 13.7214 13.3022 14.2109V21H9.97412ZM23.8862 21.2344C22.6519 21.2344 21.5894 20.9844 20.6987 20.4844C19.8133 19.9792 19.131 19.2656 18.6519 18.3437C18.1727 17.4167 17.9331 16.3203 17.9331 15.0547C17.9331 13.8203 18.1727 12.737 18.6519 11.8047C19.131 10.8724 19.8055 10.1458 20.6753 9.625C21.5503 9.10417 22.5763 8.84375 23.7534 8.84375C24.5451 8.84375 25.2821 8.97135 25.9644 9.22656C26.6519 9.47656 27.2508 9.85417 27.7612 10.3594C28.2769 10.8646 28.6779 11.5 28.9644 12.2656C29.2508 13.026 29.394 13.9167 29.394 14.9375V15.8516H19.2612V13.7891H26.2612C26.2612 13.3099 26.1571 12.8854 25.9487 12.5156C25.7404 12.1458 25.4513 11.8568 25.0815 11.6484C24.717 11.4349 24.2925 11.3281 23.8081 11.3281C23.3029 11.3281 22.855 11.4453 22.4644 11.6797C22.0789 11.9089 21.7769 12.2187 21.5581 12.6094C21.3394 12.9948 21.2274 13.4245 21.2222 13.8984V15.8594C21.2222 16.4531 21.3315 16.9661 21.5503 17.3984C21.7743 17.8307 22.0894 18.1641 22.4956 18.3984C22.9019 18.6328 23.3836 18.75 23.9409 18.75C24.3107 18.75 24.6493 18.6979 24.9565 18.5938C25.2638 18.4896 25.5269 18.3333 25.7456 18.125C25.9644 17.9167 26.131 17.6615 26.2456 17.3594L29.3237 17.5625C29.1675 18.3021 28.8472 18.9479 28.3628 19.5C27.8836 20.0469 27.2638 20.474 26.5034 20.7813C25.7482 21.0833 24.8758 21.2344 23.8862 21.2344ZM31.5659 21V9H34.894V21H31.5659ZM33.2378 7.45312C32.743 7.45312 32.3185 7.28906 31.9644 6.96094C31.6154 6.6276 31.4409 6.22917 31.4409 5.76562C31.4409 5.30729 31.6154 4.91406 31.9644 4.58594C32.3185 4.2526 32.743 4.08594 33.2378 4.08594C33.7326 4.08594 34.1545 4.2526 34.5034 4.58594C34.8576 4.91406 35.0347 5.30729 35.0347 5.76562C35.0347 6.22917 34.8576 6.6276 34.5034 6.96094C34.1545 7.28906 33.7326 7.45312 33.2378 7.45312ZM40.8882 14.0625V21H37.5601V9H40.7319V11.1172H40.8726C41.1382 10.4193 41.5835 9.86719 42.2085 9.46094C42.8335 9.04948 43.5913 8.84375 44.4819 8.84375C45.3153 8.84375 46.0418 9.02604 46.6616 9.39062C47.2814 9.75521 47.7632 10.276 48.1069 10.9531C48.4507 11.625 48.6226 12.4271 48.6226 13.3594V21H45.2944V13.9531C45.2996 13.2187 45.1121 12.6458 44.7319 12.2344C44.3517 11.8177 43.8283 11.6094 43.1616 11.6094C42.7137 11.6094 42.3179 11.7057 41.9741 11.8984C41.6356 12.0911 41.37 12.3724 41.1772 12.7422C40.9897 13.1068 40.8934 13.5469 40.8882 14.0625ZM56.7144 21.2344C55.48 21.2344 54.4175 20.9844 53.5269 20.4844C52.6414 19.9792 51.9591 19.2656 51.48 18.3437C51.0008 17.4167 50.7612 16.3203 50.7612 15.0547C50.7612 13.8203 51.0008 12.737 51.48 11.8047C51.9591 10.8724 52.6336 10.1458 53.5034 9.625C54.3784 9.10417 55.4045 8.84375 56.5815 8.84375C57.3732 8.84375 58.1102 8.97135 58.7925 9.22656C59.48 9.47656 60.0789 9.85417 60.5894 10.3594C61.105 10.8646 61.506 11.5 61.7925 12.2656C62.0789 13.026 62.2222 13.9167 62.2222 14.9375V15.8516H52.0894V13.7891H59.0894C59.0894 13.3099 58.9852 12.8854 58.7769 12.5156C58.5685 12.1458 58.2795 11.8568 57.9097 11.6484C57.5451 11.4349 57.1206 11.3281 56.6362 11.3281C56.131 11.3281 55.6831 11.4453 55.2925 11.6797C54.9071 11.9089 54.605 12.2187 54.3862 12.6094C54.1675 12.9948 54.0555 13.4245 54.0503 13.8984V15.8594C54.0503 16.4531 54.1597 16.9661 54.3784 17.3984C54.6024 17.8307 54.9175 18.1641 55.3237 18.3984C55.73 18.6328 56.2118 18.75 56.769 18.75C57.1388 18.75 57.4774 18.6979 57.7847 18.5938C58.092 18.4896 58.355 18.3333 58.5737 18.125C58.7925 17.9167 58.9591 17.6615 59.0737 17.3594L62.1519 17.5625C61.9956 18.3021 61.6753 18.9479 61.1909 19.5C60.7118 20.0469 60.092 20.474 59.3315 20.7813C58.5763 21.0833 57.7039 21.2344 56.7144 21.2344ZM66.3394 21.2031C65.8237 21.2031 65.381 21.0208 65.0112 20.6562C64.6466 20.2865 64.4644 19.8437 64.4644 19.3281C64.4644 18.8177 64.6466 18.3802 65.0112 18.0156C65.381 17.651 65.8237 17.4687 66.3394 17.4687C66.8394 17.4687 67.2769 17.651 67.6519 18.0156C68.0269 18.3802 68.2144 18.8177 68.2144 19.3281C68.2144 19.6719 68.1258 19.987 67.9487 20.2734C67.7769 20.5547 67.5503 20.7812 67.269 20.9531C66.9878 21.1198 66.6779 21.2031 66.3394 21.2031ZM70.9468 21V9H74.1187V11.1172H74.2593C74.5093 10.4141 74.9259 9.85937 75.5093 9.45312C76.0926 9.04687 76.7905 8.84375 77.603 8.84375C78.4259 8.84375 79.1265 9.04948 79.7046 9.46094C80.2827 9.86719 80.6681 10.4193 80.8608 11.1172H80.9858C81.2306 10.4297 81.6733 9.88021 82.314 9.46875C82.9598 9.05208 83.7228 8.84375 84.603 8.84375C85.7228 8.84375 86.6317 9.20052 87.3296 9.91406C88.0327 10.6224 88.3843 11.6276 88.3843 12.9297V21H85.064V13.5859C85.064 12.9193 84.8869 12.4193 84.5327 12.0859C84.1785 11.7526 83.7358 11.5859 83.2046 11.5859C82.6004 11.5859 82.1291 11.7786 81.7905 12.1641C81.452 12.5443 81.2827 13.0469 81.2827 13.6719V21H78.0562V13.5156C78.0562 12.9271 77.8869 12.4583 77.5483 12.1094C77.215 11.7604 76.7749 11.5859 76.228 11.5859C75.8582 11.5859 75.5249 11.6797 75.228 11.8672C74.9364 12.0495 74.7046 12.3073 74.5327 12.6406C74.3608 12.9687 74.2749 13.3542 74.2749 13.7969V21H70.9468ZM96.4819 21.2344C95.2476 21.2344 94.1851 20.9844 93.2944 20.4844C92.409 19.9792 91.7267 19.2656 91.2476 18.3437C90.7684 17.4167 90.5288 16.3203 90.5288 15.0547C90.5288 13.8203 90.7684 12.737 91.2476 11.8047C91.7267 10.8724 92.4012 10.1458 93.271 9.625C94.146 9.10417 95.172 8.84375 96.3491 8.84375C97.1408 8.84375 97.8778 8.97135 98.5601 9.22656C99.2476 9.47656 99.8465 9.85417 100.357 10.3594C100.873 10.8646 101.274 11.5 101.56 12.2656C101.847 13.026 101.99 13.9167 101.99 14.9375V15.8516H91.8569V13.7891H98.8569C98.8569 13.3099 98.7528 12.8854 98.5444 12.5156C98.3361 12.1458 98.047 11.8568 97.6772 11.6484C97.3127 11.4349 96.8882 11.3281 96.4038 11.3281C95.8986 11.3281 95.4507 11.4453 95.0601 11.6797C94.6746 11.9089 94.3726 12.2187 94.1538 12.6094C93.9351 12.9948 93.8231 13.4245 93.8179 13.8984V15.8594C93.8179 16.4531 93.9272 16.9661 94.146 17.3984C94.37 17.8307 94.6851 18.1641 95.0913 18.3984C95.4976 18.6328 95.9793 18.75 96.5366 18.75C96.9064 18.75 97.245 18.6979 97.5522 18.5938C97.8595 18.4896 98.1226 18.3333 98.3413 18.125C98.5601 17.9167 98.7267 17.6615 98.8413 17.3594L101.919 17.5625C101.763 18.3021 101.443 18.9479 100.958 19.5C100.479 20.0469 99.8595 20.474 99.0991 20.7813C98.3439 21.0833 97.4715 21.2344 96.4819 21.2344Z" fill="#89C5CC"/>
</svg>
