<svg width="87" height="78" viewBox="0 0 87 78" fill="none" xmlns="http://www.w3.org/2000/svg">
<g opacity="0.3">
<mask id="mask0_23_1954" style="mask-type:alpha" maskUnits="userSpaceOnUse" x="0" y="0" width="9" height="8">
<path d="M4.84527 7.97736C7.00618 7.97736 8.75794 6.19153 8.75794 3.98865C8.75794 1.78577 7.00618 0 4.84527 0C2.68437 0 0.932617 1.78577 0.932617 3.98865C0.932617 6.19153 2.68437 7.97736 4.84527 7.97736Z" fill="url(#paint0_linear_23_1954)"/>
</mask>
<g mask="url(#mask0_23_1954)">
<path d="M4.84527 7.97736C7.00618 7.97736 8.75794 6.19153 8.75794 3.98865C8.75794 1.78577 7.00618 0 4.84527 0C2.68437 0 0.932617 1.78577 0.932617 3.98865C0.932617 6.19153 2.68437 7.97736 4.84527 7.97736Z" fill="url(#paint1_linear_23_1954)"/>
</g>
<mask id="mask1_23_1954" style="mask-type:alpha" maskUnits="userSpaceOnUse" x="23" y="0" width="9" height="8">
<path d="M27.5059 7.97736C29.6668 7.97736 31.4186 6.19153 31.4186 3.98865C31.4186 1.78577 29.6668 0 27.5059 0C25.345 0 23.5933 1.78577 23.5933 3.98865C23.5933 6.19153 25.345 7.97736 27.5059 7.97736Z" fill="url(#paint2_linear_23_1954)"/>
</mask>
<g mask="url(#mask1_23_1954)">
<path d="M27.5065 7.97736C29.6674 7.97736 31.4192 6.19153 31.4192 3.98865C31.4192 1.78577 29.6674 0 27.5065 0C25.3455 0 23.5938 1.78577 23.5938 3.98865C23.5938 6.19153 25.3455 7.97736 27.5065 7.97736Z" fill="url(#paint3_linear_23_1954)"/>
</g>
<mask id="mask2_23_1954" style="mask-type:alpha" maskUnits="userSpaceOnUse" x="46" y="0" width="9" height="8">
<path d="M50.1666 7.97736C52.3275 7.97736 54.0792 6.19153 54.0792 3.98865C54.0792 1.78577 52.3275 0 50.1666 0C48.0057 0 46.2539 1.78577 46.2539 3.98865C46.2539 6.19153 48.0057 7.97736 50.1666 7.97736Z" fill="url(#paint4_linear_23_1954)"/>
</mask>
<g mask="url(#mask2_23_1954)">
<path d="M50.1671 7.97736C52.328 7.97736 54.0797 6.19153 54.0797 3.98865C54.0797 1.78577 52.328 0 50.1671 0C48.0062 0 46.2544 1.78577 46.2544 3.98865C46.2544 6.19153 48.0062 7.97736 50.1671 7.97736Z" fill="url(#paint5_linear_23_1954)"/>
</g>
<mask id="mask3_23_1954" style="mask-type:alpha" maskUnits="userSpaceOnUse" x="68" y="0" width="9" height="8">
<path d="M72.8268 7.97736C74.9877 7.97736 76.7395 6.19153 76.7395 3.98865C76.7395 1.78577 74.9877 0 72.8268 0C70.6659 0 68.9141 1.78577 68.9141 3.98865C68.9141 6.19153 70.6659 7.97736 72.8268 7.97736Z" fill="url(#paint6_linear_23_1954)"/>
</mask>
<g mask="url(#mask3_23_1954)">
<path d="M72.8273 7.97736C74.9882 7.97736 76.74 6.19153 76.74 3.98865C76.74 1.78577 74.9882 0 72.8273 0C70.6663 0 68.9146 1.78577 68.9146 3.98865C68.9146 6.19153 70.6663 7.97736 72.8273 7.97736Z" fill="url(#paint7_linear_23_1954)"/>
</g>
<mask id="mask4_23_1954" style="mask-type:alpha" maskUnits="userSpaceOnUse" x="0" y="20" width="9" height="9">
<path d="M4.84527 28.0036C7.00618 28.0036 8.75794 26.2178 8.75794 24.015C8.75794 21.8121 7.00618 20.0264 4.84527 20.0264C2.68437 20.0264 0.932617 21.8121 0.932617 24.015C0.932617 26.2178 2.68437 28.0036 4.84527 28.0036Z" fill="url(#paint8_linear_23_1954)"/>
</mask>
<g mask="url(#mask4_23_1954)">
<path d="M4.84527 28.0036C7.00618 28.0036 8.75794 26.2178 8.75794 24.015C8.75794 21.8121 7.00618 20.0264 4.84527 20.0264C2.68437 20.0264 0.932617 21.8121 0.932617 24.015C0.932617 26.2178 2.68437 28.0036 4.84527 28.0036Z" fill="url(#paint9_linear_23_1954)"/>
</g>
<mask id="mask5_23_1954" style="mask-type:alpha" maskUnits="userSpaceOnUse" x="23" y="20" width="9" height="9">
<path d="M27.5059 28.0037C29.6668 28.0037 31.4186 26.2179 31.4186 24.015C31.4186 21.8121 29.6668 20.0264 27.5059 20.0264C25.345 20.0264 23.5933 21.8121 23.5933 24.015C23.5933 26.2179 25.345 28.0037 27.5059 28.0037Z" fill="url(#paint10_linear_23_1954)"/>
</mask>
<g mask="url(#mask5_23_1954)">
<path d="M27.5065 28.0037C29.6674 28.0037 31.4192 26.2179 31.4192 24.015C31.4192 21.8121 29.6674 20.0264 27.5065 20.0264C25.3455 20.0264 23.5938 21.8121 23.5938 24.015C23.5938 26.2179 25.3455 28.0037 27.5065 28.0037Z" fill="url(#paint11_linear_23_1954)"/>
</g>
<mask id="mask6_23_1954" style="mask-type:alpha" maskUnits="userSpaceOnUse" x="46" y="20" width="9" height="9">
<path d="M50.1666 28.0037C52.3275 28.0037 54.0792 26.2179 54.0792 24.015C54.0792 21.8121 52.3275 20.0264 50.1666 20.0264C48.0057 20.0264 46.2539 21.8121 46.2539 24.015C46.2539 26.2179 48.0057 28.0037 50.1666 28.0037Z" fill="url(#paint12_linear_23_1954)"/>
</mask>
<g mask="url(#mask6_23_1954)">
<path d="M50.1671 28.0037C52.328 28.0037 54.0797 26.2179 54.0797 24.015C54.0797 21.8121 52.328 20.0264 50.1671 20.0264C48.0062 20.0264 46.2544 21.8121 46.2544 24.015C46.2544 26.2179 48.0062 28.0037 50.1671 28.0037Z" fill="url(#paint13_linear_23_1954)"/>
</g>
<mask id="mask7_23_1954" style="mask-type:alpha" maskUnits="userSpaceOnUse" x="68" y="20" width="9" height="9">
<path d="M72.8268 28.0037C74.9877 28.0037 76.7395 26.2179 76.7395 24.015C76.7395 21.8121 74.9877 20.0264 72.8268 20.0264C70.6659 20.0264 68.9141 21.8121 68.9141 24.015C68.9141 26.2179 70.6659 28.0037 72.8268 28.0037Z" fill="url(#paint14_linear_23_1954)"/>
</mask>
<g mask="url(#mask7_23_1954)">
<path d="M72.8273 28.0037C74.9882 28.0037 76.74 26.2179 76.74 24.015C76.74 21.8121 74.9882 20.0264 72.8273 20.0264C70.6663 20.0264 68.9146 21.8121 68.9146 24.015C68.9146 26.2179 70.6663 28.0037 72.8273 28.0037Z" fill="url(#paint15_linear_23_1954)"/>
</g>
<mask id="mask8_23_1954" style="mask-type:alpha" maskUnits="userSpaceOnUse" x="0" y="40" width="9" height="8">
<path d="M4.84527 47.9885C7.00618 47.9885 8.75794 46.2028 8.75794 43.9999C8.75794 41.797 7.00618 40.0112 4.84527 40.0112C2.68437 40.0112 0.932617 41.797 0.932617 43.9999C0.932617 46.2028 2.68437 47.9885 4.84527 47.9885Z" fill="url(#paint16_linear_23_1954)"/>
</mask>
<g mask="url(#mask8_23_1954)">
<path d="M4.84527 47.9886C7.00618 47.9886 8.75794 46.2028 8.75794 43.9999C8.75794 41.797 7.00618 40.0112 4.84527 40.0112C2.68437 40.0112 0.932617 41.797 0.932617 43.9999C0.932617 46.2028 2.68437 47.9886 4.84527 47.9886Z" fill="url(#paint17_linear_23_1954)"/>
</g>
<mask id="mask9_23_1954" style="mask-type:alpha" maskUnits="userSpaceOnUse" x="23" y="40" width="9" height="8">
<path d="M27.5059 47.9891C29.6668 47.9891 31.4186 46.2033 31.4186 44.0004C31.4186 41.7975 29.6668 40.0117 27.5059 40.0117C25.345 40.0117 23.5933 41.7975 23.5933 44.0004C23.5933 46.2033 25.345 47.9891 27.5059 47.9891Z" fill="url(#paint18_linear_23_1954)"/>
</mask>
<g mask="url(#mask9_23_1954)">
<path d="M27.5065 47.9891C29.6674 47.9891 31.4192 46.2033 31.4192 44.0004C31.4192 41.7975 29.6674 40.0117 27.5065 40.0117C25.3455 40.0117 23.5938 41.7975 23.5938 44.0004C23.5938 46.2033 25.3455 47.9891 27.5065 47.9891Z" fill="url(#paint19_linear_23_1954)"/>
</g>
<mask id="mask10_23_1954" style="mask-type:alpha" maskUnits="userSpaceOnUse" x="46" y="40" width="9" height="8">
<path d="M50.1666 47.9891C52.3275 47.9891 54.0792 46.2033 54.0792 44.0004C54.0792 41.7975 52.3275 40.0117 50.1666 40.0117C48.0057 40.0117 46.2539 41.7975 46.2539 44.0004C46.2539 46.2033 48.0057 47.9891 50.1666 47.9891Z" fill="url(#paint20_linear_23_1954)"/>
</mask>
<g mask="url(#mask10_23_1954)">
<path d="M50.1671 47.9891C52.328 47.9891 54.0797 46.2033 54.0797 44.0004C54.0797 41.7975 52.328 40.0117 50.1671 40.0117C48.0062 40.0117 46.2544 41.7975 46.2544 44.0004C46.2544 46.2033 48.0062 47.9891 50.1671 47.9891Z" fill="url(#paint21_linear_23_1954)"/>
</g>
<mask id="mask11_23_1954" style="mask-type:alpha" maskUnits="userSpaceOnUse" x="68" y="40" width="9" height="8">
<path d="M72.8268 47.9891C74.9877 47.9891 76.7395 46.2033 76.7395 44.0004C76.7395 41.7975 74.9877 40.0117 72.8268 40.0117C70.6659 40.0117 68.9141 41.7975 68.9141 44.0004C68.9141 46.2033 70.6659 47.9891 72.8268 47.9891Z" fill="url(#paint22_linear_23_1954)"/>
</mask>
<g mask="url(#mask11_23_1954)">
<path d="M72.8273 47.9891C74.9882 47.9891 76.74 46.2033 76.74 44.0004C76.74 41.7975 74.9882 40.0117 72.8273 40.0117C70.6663 40.0117 68.9146 41.7975 68.9146 44.0004C68.9146 46.2033 70.6663 47.9891 72.8273 47.9891Z" fill="url(#paint23_linear_23_1954)"/>
</g>
<mask id="mask12_23_1954" style="mask-type:alpha" maskUnits="userSpaceOnUse" x="0" y="60" width="9" height="9">
<path d="M4.84527 68.0154C7.00618 68.0154 8.75794 66.2296 8.75794 64.0267C8.75794 61.8239 7.00618 60.0381 4.84527 60.0381C2.68437 60.0381 0.932617 61.8239 0.932617 64.0267C0.932617 66.2296 2.68437 68.0154 4.84527 68.0154Z" fill="url(#paint24_linear_23_1954)"/>
</mask>
<g mask="url(#mask12_23_1954)">
<path d="M4.84527 68.015C7.00618 68.015 8.75794 66.2291 8.75794 64.0263C8.75794 61.8234 7.00618 60.0376 4.84527 60.0376C2.68437 60.0376 0.932617 61.8234 0.932617 64.0263C0.932617 66.2291 2.68437 68.015 4.84527 68.015Z" fill="url(#paint25_linear_23_1954)"/>
</g>
<mask id="mask13_23_1954" style="mask-type:alpha" maskUnits="userSpaceOnUse" x="23" y="60" width="9" height="9">
<path d="M27.5059 68.0154C29.6668 68.0154 31.4186 66.2296 31.4186 64.0267C31.4186 61.8239 29.6668 60.0381 27.5059 60.0381C25.345 60.0381 23.5933 61.8239 23.5933 64.0267C23.5933 66.2296 25.345 68.0154 27.5059 68.0154Z" fill="url(#paint26_linear_23_1954)"/>
</mask>
<g mask="url(#mask13_23_1954)">
<path d="M27.5065 68.015C29.6674 68.015 31.4192 66.2291 31.4192 64.0263C31.4192 61.8234 29.6674 60.0376 27.5065 60.0376C25.3455 60.0376 23.5938 61.8234 23.5938 64.0263C23.5938 66.2291 25.3455 68.015 27.5065 68.015Z" fill="url(#paint27_linear_23_1954)"/>
</g>
<mask id="mask14_23_1954" style="mask-type:alpha" maskUnits="userSpaceOnUse" x="46" y="60" width="9" height="9">
<path d="M50.1666 68.0154C52.3275 68.0154 54.0792 66.2296 54.0792 64.0267C54.0792 61.8239 52.3275 60.0381 50.1666 60.0381C48.0057 60.0381 46.2539 61.8239 46.2539 64.0267C46.2539 66.2296 48.0057 68.0154 50.1666 68.0154Z" fill="url(#paint28_linear_23_1954)"/>
</mask>
<g mask="url(#mask14_23_1954)">
<path d="M50.1671 68.015C52.328 68.015 54.0797 66.2291 54.0797 64.0263C54.0797 61.8234 52.328 60.0376 50.1671 60.0376C48.0062 60.0376 46.2544 61.8234 46.2544 64.0263C46.2544 66.2291 48.0062 68.015 50.1671 68.015Z" fill="url(#paint29_linear_23_1954)"/>
</g>
<mask id="mask15_23_1954" style="mask-type:alpha" maskUnits="userSpaceOnUse" x="68" y="60" width="9" height="9">
<path d="M72.8268 68.0154C74.9877 68.0154 76.7395 66.2296 76.7395 64.0267C76.7395 61.8239 74.9877 60.0381 72.8268 60.0381C70.6659 60.0381 68.9141 61.8239 68.9141 64.0267C68.9141 66.2296 70.6659 68.0154 72.8268 68.0154Z" fill="url(#paint30_linear_23_1954)"/>
</mask>
<g mask="url(#mask15_23_1954)">
<path d="M72.8273 68.015C74.9882 68.015 76.74 66.2291 76.74 64.0263C76.74 61.8234 74.9882 60.0376 72.8273 60.0376C70.6663 60.0376 68.9146 61.8234 68.9146 64.0263C68.9146 66.2291 70.6663 68.015 72.8273 68.015Z" fill="url(#paint31_linear_23_1954)"/>
</g>
</g>
<defs>
<linearGradient id="paint0_linear_23_1954" x1="39.0381" y1="92.4708" x2="-16.4929" y2="-45.8062" gradientUnits="userSpaceOnUse">
<stop stop-color="#89C5CC"/>
<stop offset="1" stop-color="#89C5CC"/>
</linearGradient>
<linearGradient id="paint1_linear_23_1954" x1="39.0381" y1="92.4708" x2="-16.4929" y2="-45.8062" gradientUnits="userSpaceOnUse">
<stop stop-color="#89C5CC"/>
<stop offset="1" stop-color="#89C5CC"/>
</linearGradient>
<linearGradient id="paint2_linear_23_1954" x1="61.6988" y1="92.4708" x2="6.16776" y2="-45.8062" gradientUnits="userSpaceOnUse">
<stop stop-color="#89C5CC"/>
<stop offset="1" stop-color="#89C5CC"/>
</linearGradient>
<linearGradient id="paint3_linear_23_1954" x1="61.6999" y1="92.4708" x2="6.16947" y2="-45.8068" gradientUnits="userSpaceOnUse">
<stop stop-color="#89C5CC"/>
<stop offset="1" stop-color="#89C5CC"/>
</linearGradient>
<linearGradient id="paint4_linear_23_1954" x1="84.3594" y1="92.4708" x2="28.8284" y2="-45.8062" gradientUnits="userSpaceOnUse">
<stop stop-color="#89C5CC"/>
<stop offset="1" stop-color="#89C5CC"/>
</linearGradient>
<linearGradient id="paint5_linear_23_1954" x1="84.3599" y1="92.4708" x2="28.8289" y2="-45.8062" gradientUnits="userSpaceOnUse">
<stop stop-color="#89C5CC"/>
<stop offset="1" stop-color="#89C5CC"/>
</linearGradient>
<linearGradient id="paint6_linear_23_1954" x1="107.02" y1="92.4708" x2="51.4898" y2="-45.8068" gradientUnits="userSpaceOnUse">
<stop stop-color="#89C5CC"/>
<stop offset="1" stop-color="#89C5CC"/>
</linearGradient>
<linearGradient id="paint7_linear_23_1954" x1="107.021" y1="92.4708" x2="51.4903" y2="-45.8068" gradientUnits="userSpaceOnUse">
<stop stop-color="#89C5CC"/>
<stop offset="1" stop-color="#89C5CC"/>
</linearGradient>
<linearGradient id="paint8_linear_23_1954" x1="39.0381" y1="112.496" x2="-16.4914" y2="-25.7797" gradientUnits="userSpaceOnUse">
<stop stop-color="#89C5CC"/>
<stop offset="1" stop-color="#89C5CC"/>
</linearGradient>
<linearGradient id="paint9_linear_23_1954" x1="39.0381" y1="112.496" x2="-16.4914" y2="-25.7797" gradientUnits="userSpaceOnUse">
<stop stop-color="#89C5CC"/>
<stop offset="1" stop-color="#89C5CC"/>
</linearGradient>
<linearGradient id="paint10_linear_23_1954" x1="61.6988" y1="112.496" x2="6.16849" y2="-25.7798" gradientUnits="userSpaceOnUse">
<stop stop-color="#89C5CC"/>
<stop offset="1" stop-color="#89C5CC"/>
</linearGradient>
<linearGradient id="paint11_linear_23_1954" x1="61.6999" y1="112.496" x2="6.1702" y2="-25.7804" gradientUnits="userSpaceOnUse">
<stop stop-color="#89C5CC"/>
<stop offset="1" stop-color="#89C5CC"/>
</linearGradient>
<linearGradient id="paint12_linear_23_1954" x1="84.3594" y1="112.496" x2="28.8291" y2="-25.7798" gradientUnits="userSpaceOnUse">
<stop stop-color="#89C5CC"/>
<stop offset="1" stop-color="#89C5CC"/>
</linearGradient>
<linearGradient id="paint13_linear_23_1954" x1="84.3599" y1="112.496" x2="28.8296" y2="-25.7798" gradientUnits="userSpaceOnUse">
<stop stop-color="#89C5CC"/>
<stop offset="1" stop-color="#89C5CC"/>
</linearGradient>
<linearGradient id="paint14_linear_23_1954" x1="107.02" y1="112.496" x2="51.4905" y2="-25.7804" gradientUnits="userSpaceOnUse">
<stop stop-color="#89C5CC"/>
<stop offset="1" stop-color="#89C5CC"/>
</linearGradient>
<linearGradient id="paint15_linear_23_1954" x1="107.021" y1="112.496" x2="51.491" y2="-25.7804" gradientUnits="userSpaceOnUse">
<stop stop-color="#89C5CC"/>
<stop offset="1" stop-color="#89C5CC"/>
</linearGradient>
<linearGradient id="paint16_linear_23_1954" x1="39.0381" y1="132.481" x2="-16.4922" y2="-5.7949" gradientUnits="userSpaceOnUse">
<stop stop-color="#89C5CC"/>
<stop offset="1" stop-color="#89C5CC"/>
</linearGradient>
<linearGradient id="paint17_linear_23_1954" x1="39.0381" y1="132.482" x2="-16.4929" y2="-5.79496" gradientUnits="userSpaceOnUse">
<stop stop-color="#89C5CC"/>
<stop offset="1" stop-color="#89C5CC"/>
</linearGradient>
<linearGradient id="paint18_linear_23_1954" x1="61.6988" y1="132.483" x2="6.16776" y2="-5.79447" gradientUnits="userSpaceOnUse">
<stop stop-color="#89C5CC"/>
<stop offset="1" stop-color="#89C5CC"/>
</linearGradient>
<linearGradient id="paint19_linear_23_1954" x1="61.6999" y1="132.483" x2="6.16947" y2="-5.79507" gradientUnits="userSpaceOnUse">
<stop stop-color="#89C5CC"/>
<stop offset="1" stop-color="#89C5CC"/>
</linearGradient>
<linearGradient id="paint20_linear_23_1954" x1="84.3594" y1="132.483" x2="28.8284" y2="-5.79447" gradientUnits="userSpaceOnUse">
<stop stop-color="#89C5CC"/>
<stop offset="1" stop-color="#89C5CC"/>
</linearGradient>
<linearGradient id="paint21_linear_23_1954" x1="84.3599" y1="132.483" x2="28.8289" y2="-5.79447" gradientUnits="userSpaceOnUse">
<stop stop-color="#89C5CC"/>
<stop offset="1" stop-color="#89C5CC"/>
</linearGradient>
<linearGradient id="paint22_linear_23_1954" x1="107.02" y1="132.483" x2="51.4898" y2="-5.79507" gradientUnits="userSpaceOnUse">
<stop stop-color="#89C5CC"/>
<stop offset="1" stop-color="#89C5CC"/>
</linearGradient>
<linearGradient id="paint23_linear_23_1954" x1="107.021" y1="132.483" x2="51.4903" y2="-5.79507" gradientUnits="userSpaceOnUse">
<stop stop-color="#89C5CC"/>
<stop offset="1" stop-color="#89C5CC"/>
</linearGradient>
<linearGradient id="paint24_linear_23_1954" x1="39.0381" y1="152.509" x2="-16.4929" y2="14.2319" gradientUnits="userSpaceOnUse">
<stop stop-color="#89C5CC"/>
<stop offset="1" stop-color="#89C5CC"/>
</linearGradient>
<linearGradient id="paint25_linear_23_1954" x1="39.0381" y1="152.508" x2="-16.4929" y2="14.2314" gradientUnits="userSpaceOnUse">
<stop stop-color="#89C5CC"/>
<stop offset="1" stop-color="#89C5CC"/>
</linearGradient>
<linearGradient id="paint26_linear_23_1954" x1="61.6988" y1="152.509" x2="6.16776" y2="14.2319" gradientUnits="userSpaceOnUse">
<stop stop-color="#89C5CC"/>
<stop offset="1" stop-color="#89C5CC"/>
</linearGradient>
<linearGradient id="paint27_linear_23_1954" x1="61.6999" y1="152.508" x2="6.16947" y2="14.2308" gradientUnits="userSpaceOnUse">
<stop stop-color="#89C5CC"/>
<stop offset="1" stop-color="#89C5CC"/>
</linearGradient>
<linearGradient id="paint28_linear_23_1954" x1="84.3594" y1="152.509" x2="28.8284" y2="14.2319" gradientUnits="userSpaceOnUse">
<stop stop-color="#89C5CC"/>
<stop offset="1" stop-color="#89C5CC"/>
</linearGradient>
<linearGradient id="paint29_linear_23_1954" x1="84.3599" y1="152.508" x2="28.8289" y2="14.2314" gradientUnits="userSpaceOnUse">
<stop stop-color="#89C5CC"/>
<stop offset="1" stop-color="#89C5CC"/>
</linearGradient>
<linearGradient id="paint30_linear_23_1954" x1="107.02" y1="152.509" x2="51.4898" y2="14.2313" gradientUnits="userSpaceOnUse">
<stop stop-color="#89C5CC"/>
<stop offset="1" stop-color="#89C5CC"/>
</linearGradient>
<linearGradient id="paint31_linear_23_1954" x1="107.021" y1="152.508" x2="51.4903" y2="14.2308" gradientUnits="userSpaceOnUse">
<stop stop-color="#89C5CC"/>
<stop offset="1" stop-color="#89C5CC"/>
</linearGradient>
</defs>
</svg>
